<?xml version="1.0" encoding="UTF-8" standalone="no"?>
<!-- Generator: Adobe Illustrator 21.1.0, SVG Export Plug-In . SVG Version: 6.00 Build 0)  -->

<svg
   xmlns:dc="http://purl.org/dc/elements/1.1/"
   xmlns:cc="http://creativecommons.org/ns#"
   xmlns:rdf="http://www.w3.org/1999/02/22-rdf-syntax-ns#"
   xmlns:svg="http://www.w3.org/2000/svg"
   xmlns="http://www.w3.org/2000/svg"
   xmlns:sodipodi="http://sodipodi.sourceforge.net/DTD/sodipodi-0.dtd"
   xmlns:inkscape="http://www.inkscape.org/namespaces/inkscape"
   version="1.1"
   id="Calque_1"
   x="0px"
   y="0px"
   viewBox="0 0 229.8 46.700001"
   xml:space="preserve"
   inkscape:version="0.91 r13725"
   sodipodi:docname="xleaflet.svg"
   width="738.12"
   height="150"><metadata
     id="metadata31"><rdf:RDF><cc:Work
         rdf:about=""><dc:format>image/svg+xml</dc:format><dc:type
           rdf:resource="http://purl.org/dc/dcmitype/StillImage" /><dc:title></dc:title></cc:Work></rdf:RDF></metadata><defs
     id="defs29" /><sodipodi:namedview
     pagecolor="#ffffff"
     bordercolor="#666666"
     borderopacity="1"
     objecttolerance="10"
     gridtolerance="10"
     guidetolerance="10"
     inkscape:pageopacity="0"
     inkscape:pageshadow="2"
     inkscape:window-width="1291"
     inkscape:window-height="740"
     id="namedview27"
     showgrid="false"
     fit-margin-top="0"
     fit-margin-left="0"
     fit-margin-right="0"
     fit-margin-bottom="0"
     inkscape:zoom="2.73794"
     inkscape:cx="115.05"
     inkscape:cy="24"
     inkscape:window-x="0"
     inkscape:window-y="23"
     inkscape:window-maximized="0"
     inkscape:current-layer="Calque_1" /><style
     type="text/css"
     id="style3">
	.st0{fill:#D71433;}
	.st1{opacity:0.28;fill:#D71433;enable-background:new    ;}
</style><g
     id="Calque_2"
     transform="translate(0,-1.3)"><g
       id="Calque_1-2"><path
         class="st0"
         d="m 39.2,5.8 c -1.4,0.9 -2.6,2 -3.5,3.4 -0.4,0.7 -6.6,10 -10.1,15.2 -2.9,4.4 -10.3,15.5 -10.8,16.2 -1.2,2 -2.9,3.8 -4.8,5.1 -1.4,0.9 -3,1.6 -4.6,2.1 l -0.5,0.1 36.8,0 -0.3,-0.1 c -1.6,-0.5 -3.1,-1.2 -4.5,-2.1 -2,-1.3 -3.6,-3.1 -4.8,-5.1 -0.4,-0.6 -5.2,-7.8 -8.6,-12.9 0.8,-1.2 1.5,-2.3 2.1,-3.1 0,0.1 0.1,0.1 0.1,0.2 3.5,5.3 9.7,14.6 10.1,15.2 0.9,1.4 2.1,2.5 3.5,3.4 1.1,0.7 2.3,1.2 3.5,1.6 1.3,0.4 2.8,0.6 4.1,0.7 l 0,0 0,0 0,-42.2 c -1.4,0.1 -2.7,0.4 -4,0.7 -1.4,0.4 -2.6,0.9 -3.7,1.6 z M 11,40.1 C 11.4,39.4 17.6,30.1 21.1,24.9 24,20.5 31.4,9.4 31.9,8.7 33.1,6.7 34.8,4.9 36.7,3.6 38.1,2.7 39.7,2 41.2,1.5 L 41.7,1.3 5,1.3 5.4,1.4 c 1.6,0.5 3.1,1.2 4.5,2.1 2,1.3 3.6,3.1 4.8,5.1 0.4,0.6 5.2,7.8 8.6,12.9 -0.8,1.2 -1.5,2.3 -2.1,3.1 0,-0.1 -0.1,-0.1 -0.1,-0.2 C 17.6,19.2 11.4,9.9 11,9.2 10.1,7.8 8.9,6.7 7.5,5.8 6.4,5.1 5.2,4.6 4,4.2 2.7,3.8 1.4,3.6 0,3.5 l 0,42.4 c 1.4,-0.1 2.7,-0.4 4,-0.7 1.2,-0.4 2.4,-0.9 3.5,-1.6 1.4,-1 2.6,-2.1 3.5,-3.5 z"
         id="path7"
         inkscape:connector-curvature="0"
         style="fill:#d71433" /><path
         class="st1"
         d="m 25.4,24.7 c -0.6,0.8 -1.3,2 -2.1,3.1 3.4,5.1 8.1,12.3 8.6,12.9 1.2,2 2.9,3.8 4.8,5.1 1.4,0.9 3,1.6 4.5,2.1 l 0.5,0.1 5,0 0,-2.2 C 45.3,45.7 43.9,45.4 42.6,45.1 41.4,44.7 40.2,44.2 39.1,43.5 37.7,42.6 36.5,41.5 35.6,40.1 35.2,39.4 29,30.1 25.5,24.9 l 0,0 c 0,-0.1 0,-0.2 -0.1,-0.2 M 5.2,1.3 0,1.3 0,3.5 c 1.4,0.1 2.7,0.4 4,0.7 1.2,0.4 2.4,0.9 3.5,1.6 1.4,0.9 2.6,2 3.5,3.4 0.4,0.7 6.6,10 10.1,15.2 l 0,0 c 0,0.1 0.1,0.1 0.1,0.2 0.6,-0.8 1.3,-2 2.1,-3.1 C 19.9,16.4 15.2,9.2 14.7,8.6 13.5,6.6 11.8,4.9 9.9,3.5 8.5,2.6 7.1,1.9 5.5,1.4 L 5.2,1.3"
         id="path9"
         inkscape:connector-curvature="0"
         style="opacity:0.28000004;fill:#d71433;enable-background:new" /></g></g><g
     id="g11"
     transform="translate(0,-1.3)"><path
       class="st0"
       d="m 119.7,14.2 c -2.3,0 -4.6,0.3 -6.9,1.5 l 1,2 c 1.9,-0.9 3.8,-1.2 5.9,-1.2 7.5,0 9.6,4.1 10,10.5 -13.6,0.6 -20.3,2.2 -20.3,9.2 0,5 2.2,8.5 9.8,8.5 l 0.5,0 c 8.9,0 12.4,-4.9 12.4,-15.2 0.1,-10.5 -3.4,-15.3 -12.4,-15.3 z m 0.1,28.2 c -1.8,0 -3.7,-0.3 -5.4,-1 -0.5,-0.2 -0.9,-0.5 -1.2,-0.8 -0.9,-1 -1.3,-2.5 -1.3,-4.4 0,-5.7 6.5,-6.7 17.9,-7.2 0,0.1 0,0.3 0.1,0.5 0,7.8 -1.7,12.8 -10.1,12.9 z"
       id="path13"
       inkscape:connector-curvature="0"
       style="fill:#d71433" /><path
       class="st0"
       d="m 89.3,14.3 c -5.3,0 -11.5,1.9 -11.5,15.2 0,12.3 5.4,15.1 12,15.1 3.6,0 6.7,-0.6 9.4,-2.3 l -0.9,-1.9 c -2.7,1.5 -5.3,2.2 -8.5,2.2 -5.2,0 -9.4,-1.9 -9.7,-11.2 l 0,-1.2 20.2,0 0,0 0,-0.8 C 100.3,18 96.1,14.3 89.3,14.3 Z M 80,28 c 0.2,-9.9 4.6,-11.7 9.3,-11.7 5.2,0 8.7,2.8 8.7,11.7 l -18,0 z"
       id="path15"
       inkscape:connector-curvature="0"
       style="fill:#d71433" /><path
       class="st0"
       d="m 194.5,14.3 c -5.3,0 -11.5,1.9 -11.5,15.2 0,12.3 5.4,15.1 12,15.1 3.6,0 6.7,-0.6 9.4,-2.3 l -0.9,-1.9 c -2.7,1.5 -5.3,2.2 -8.5,2.2 -5.2,0 -9.4,-1.9 -9.7,-11.2 l 0,-1.2 20.2,0 0,0 0,-0.8 c 0,-11.4 -4.2,-15.1 -11,-15.1 z M 185.1,28 c 0.2,-9.9 4.6,-11.7 9.3,-11.7 5.2,0 8.7,2.8 8.7,11.7 l -18,0 z"
       id="path17"
       inkscape:connector-curvature="0"
       style="fill:#d71433" /><path
       class="st0"
       d="m 219.7,8.8 0,7.3 -7.1,0 -1.1,2.1 8.2,0 0,16.1 c -0.1,1.7 0.2,3.4 0.8,4.9 0,0.1 0.7,1.5 1.7,2.8 0.6,0.6 1.6,1.6 3.1,2.6 l 1,-2.1 c -1.1,-0.8 -2,-1.5 -2.4,-2 -0.9,-1 -1.4,-2.2 -1.4,-2.2 -0.5,-1.1 -0.7,-2.3 -0.7,-3.4 l 0,-16.7 8,0 -1.1,-2 -7,0 0,-7.4 -2,0 z"
       id="path19"
       inkscape:connector-curvature="0"
       style="fill:#d71433" /><path
       class="st0"
       d="m 170.6,44.9 c -0.8,-2.8 -1,-6.3 -1,-10.1 l 0,-30.5 2.3,-0.3 0,31 c 0,3.5 0.2,7.2 1,10 l -2.3,0 z"
       id="path21"
       inkscape:connector-curvature="0"
       style="fill:#d71433" /><path
       class="st0"
       d="m 64.1,44.9 c -0.8,-2.8 -1,-6.3 -1,-10.1 l 0,-30.5 2.3,-0.3 0,31 c 0,3.5 0.2,7.2 1,10 l -2.3,0 z"
       id="path23"
       inkscape:connector-curvature="0"
       style="fill:#d71433" /><path
       class="st0"
       d="m 153.8,1.6 c -5.7,0 -7.4,3.9 -7.4,8.3 0,0.3 0,2.8 0,6.3 l -5.9,0 -1.1,2.1 7,0 c 0,10.1 0,25.8 0,26.1 0.7,0.2 1.5,0.4 2.3,0.5 0,0 0,-16.2 0,-26.6 l 6.7,0 -1.1,-2.1 -5.6,0 c 0,-3.5 0,-6 0,-6.3 0,-4.6 2,-6.1 5,-6.1 1,0 2.2,0.1 3.3,0.5 l 0,0 -1.1,-2.4 c -0.7,-0.2 -1.4,-0.3 -2.1,-0.3 z"
       id="path25"
       inkscape:connector-curvature="0"
       style="fill:#d71433" /></g></svg>
