<?xml version="1.0" encoding="utf-8"?>
<!-- Generator: Adobe Illustrator 21.1.0, SVG Export Plug-In . SVG Version: 6.00 Build 0)  -->
<svg version="1.1" id="Calque_1" xmlns="http://www.w3.org/2000/svg" xmlns:xlink="http://www.w3.org/1999/xlink" x="0px" y="0px"
	 viewBox="0 0 153.2 59.9" style="enable-background:new 0 0 153.2 59.9;" width="495.258621" height="193.642241" xml:space="preserve">
<style type="text/css">
	.st0{fill:#CF5EA6;}
	.st1{opacity:0.28;fill:#CF5EA6;}
</style>
<g>
	<g>
		<path id="path4147_4_" class="st0" d="M4.8,3.6c0.2,0,0.4,0.1,0.5,0.2c2.5,0.8,4.5,2,4.5,2.1c2,1.3,3.6,3,4.8,5
			c0.4,0.6,5.1,7.7,8.5,12.8c3.4-5.1,8.1-12.2,8.5-12.8c1.2-2,2.8-3.7,4.8-5c0-0.1,2.1-1.3,4.5-2.1l0.5-0.1H4.8z M0,5.8v42
			c1.8-0.2,3.2-0.4,3.9-0.7c2-0.6,3.5-1.6,3.5-1.6c1.5-0.9,2.6-2.1,3.5-3.4c0.4-0.7,6.6-9.8,10-15.1c0-0.1,0.1-0.1,0.1-0.2
			c0-0.1-0.1-0.1-0.1-0.2c-3.5-5.3-9.6-14.4-10-15.1C10,10.2,8.9,9,7.4,8.1c0,0-1.5-1-3.5-1.6C3.2,6.2,1.8,6,0,5.8z M46.3,5.8
			c-1.8,0.2-3.2,0.4-3.9,0.7c-2.1,0.6-3.5,1.6-3.5,1.6c-1.4,0.9-2.6,2.1-3.5,3.4c-0.4,0.7-6.6,9.8-10,15.1c0,0.1-0.1,0.1-0.1,0.2
			c0,0.1,0.1,0.1,0.1,0.2c3.5,5.3,9.6,14.4,10,15.1c0.9,1.3,2,2.5,3.5,3.4c0,0,1.5,1,3.5,1.6c0.8,0.3,2.1,0.5,3.9,0.7v2.1h-4.8
			L41,49.7c-2.5-0.8-4.5-2-4.5-2.1c-2-1.3-3.6-3-4.8-5c-0.4-0.6-5.1-7.7-8.5-12.8c-3.4,5.1-8.1,12.2-8.5,12.8c-1.2,2-2.8,3.7-4.8,5
			c0,0.1-2.1,1.3-4.5,2.1l-0.5,0.1h41.5V5.8z"/>
		<path id="path9-3_4_" class="st1" d="M25.2,26.7c-0.6,0.8-1.3,1.9-2.1,3.1
			c3.4,5.1,8.1,12.2,8.5,12.8c1.2,2,2.8,3.7,4.8,5c0,0.1,2.1,1.3,4.5,2.1c0.2,0,0.4,0.1,0.5,0.1h4.8v-2.1c-1.8-0.2-3.2-0.4-3.9-0.7
			c-2-0.6-3.5-1.6-3.5-1.6c-1.5-0.9-2.6-2.1-3.5-3.4c-0.4-0.7-6.6-9.8-10-15.1l0,0C25.3,26.9,25.3,26.8,25.2,26.7 M4.8,3.6H0v2.1
			C1.8,6,3.2,6.2,3.9,6.5c2,0.6,3.5,1.6,3.5,1.6c1.4,0.9,2.6,2.1,3.5,3.4c0.4,0.7,6.6,9.8,10,15.1l0,0c0,0.1,0.1,0.1,0.1,0.2
			c0.6-0.8,1.3-1.9,2.1-3.1c-3.4-5.1-8.1-12.2-8.5-12.8c-1.2-2-2.8-3.7-4.8-5c0-0.1-2.1-1.3-4.5-2.1C5.2,3.7,5,3.7,4.8,3.6"/>
	</g>
	<path class="st0" d="M93.5,31.7c0,3.6,0.2,7.3,1,10.2h-2.3c-0.8-2.9-1-6.4-1-10.3V0.3L93.5,0V31.7z M145.7,36.4
		c-0.5-1.1-0.7-2.3-0.7-3.5V15.8h8.2l-1.1-2.1H145V6.2h-2.3v7.5h-7.3l-1.1,2.1h8.4v16.4c-0.1,1.8,0.2,3.5,0.8,5
		c0,0.1,0.7,1.5,1.8,2.8c0.6,0.6,1.7,1.6,3.2,2.6l1-2.1c-1.2-0.8-2-1.5-2.4-2C146.2,37.5,145.7,36.4,145.7,36.4z M128.6,27.5
		c0,10.4-3.4,15.3-12.2,15.3c-8.7,0-12.2-4.9-12.2-15.3c0-10.4,3.4-15.3,12.2-15.3C125.1,12.2,128.6,17,128.6,27.5z M126.3,27.5
		c0-8-1.7-13.2-9.9-13.2c-8.2,0-9.9,5.3-9.9,13.2s1.7,13.2,9.9,13.2C124.6,40.6,126.3,35.4,126.3,27.5z M82.4,27.7
		c0,10.3-3.4,15.3-12.2,15.3c-4.8,0-8-1.5-9.9-4.5v21.4c-0.8-0.4-1.6-0.9-2.3-1.4V14.5c0.7-0.5,1.5-1,2.3-1.4c0,0,0,0,0.1,0V17
		c1.9-3,5.1-4.5,9.9-4.5C78.9,12.5,82.4,17.4,82.4,27.7z M80.1,27.8c0-7.9-1.7-13.2-9.9-13.2s-9.9,5.2-9.9,13.2
		c0,7.9,1.7,13.2,9.9,13.2S80.1,35.7,80.1,27.8z"/>
</g>
</svg>
