<?xml version="1.0" encoding="utf-8"?>
<!-- Generator: Adobe Illustrator 21.1.0, SVG Export Plug-In . SVG Version: 6.00 Build 0)  -->
<svg version="1.1" id="Calque_1" xmlns="http://www.w3.org/2000/svg" xmlns:xlink="http://www.w3.org/1999/xlink" x="0px" y="0px"
	 viewBox="0 0 268.3 56.3" style="enable-background:new 0 0 268.3 56.3;" width="867.349138" height="182.00431" xml:space="preserve">
<style type="text/css">
	.st0{fill:#0092CA;}
	.st1{opacity:0.28;fill:#0092CA;}
</style>
<g>
	<path id="path4147_5_" class="st0" d="M4.8,0C5,0,5.2,0.1,5.3,0.2c2.5,0.8,4.5,2,4.5,2.1c2,1.3,3.6,3,4.8,5C15,7.9,19.7,15,23.1,20
		c3.4-5.1,8.1-12.2,8.5-12.8c1.2-2,2.8-3.7,4.8-5c0-0.1,2.1-1.3,4.5-2.1L41.4,0H4.8z M0,2.1v42c1.8-0.2,3.2-0.4,3.9-0.7
		c2-0.6,3.5-1.6,3.5-1.6c1.5-0.9,2.6-2.1,3.5-3.4c0.4-0.7,6.6-9.8,10-15.1c0-0.1,0.1-0.1,0.1-0.2c0-0.1-0.1-0.1-0.1-0.2
		c-3.5-5.3-9.6-14.4-10-15.1c-0.9-1.3-2-2.5-3.5-3.4c0,0-1.5-1-3.5-1.6C3.2,2.6,1.8,2.4,0,2.1z M46.3,2.1c-1.8,0.2-3.2,0.4-3.9,0.7
		c-2.1,0.6-3.5,1.6-3.5,1.6c-1.4,0.9-2.6,2.1-3.5,3.4c-0.4,0.7-6.6,9.8-10,15.1c0,0.1-0.1,0.1-0.1,0.2c0,0.1,0.1,0.1,0.1,0.2
		c3.5,5.3,9.6,14.4,10,15.1c0.9,1.3,2,2.5,3.5,3.4c0,0,1.5,1,3.5,1.6c0.8,0.3,2.1,0.5,3.9,0.7v2.1h-4.8L41,46.1
		c-2.5-0.8-4.5-2-4.5-2.1c-2-1.3-3.6-3-4.8-5c-0.4-0.6-5.1-7.7-8.5-12.8c-3.4,5.1-8.1,12.2-8.5,12.8c-1.2,2-2.8,3.7-4.8,5
		c0,0.1-2.1,1.3-4.5,2.1l-0.5,0.1h41.5V2.1z"/>
	<path id="path9-3_5_" class="st1" d="M25.2,23.1c-0.6,0.8-1.3,1.9-2.1,3.1
		c3.4,5.1,8.1,12.2,8.5,12.8c1.2,2,2.8,3.7,4.8,5c0,0.1,2.1,1.3,4.5,2.1c0.2,0,0.4,0.1,0.5,0.1h4.8v-2.1c-1.8-0.2-3.2-0.4-3.9-0.7
		c-2-0.6-3.5-1.6-3.5-1.6c-1.5-0.9-2.6-2.1-3.5-3.4c-0.4-0.7-6.6-9.8-10-15.1l0,0C25.3,23.2,25.3,23.2,25.2,23.1 M4.8,0H0v2.1
		c1.8,0.2,3.2,0.4,3.9,0.7c2,0.6,3.5,1.6,3.5,1.6c1.4,0.9,2.6,2.1,3.5,3.4c0.4,0.7,6.6,9.8,10,15.1l0,0c0,0.1,0.1,0.1,0.1,0.2
		c0.6-0.8,1.3-1.9,2.1-3.1C19.7,15,15,7.9,14.6,7.3c-1.2-2-2.8-3.7-4.8-5c0-0.1-2.1-1.3-4.5-2.1C5.2,0.1,5,0,4.8,0"/>
	<path class="st0" d="M183.7,8.6c-5.4,0-11.7,2-11.7,15.4c0,12.5,5.5,15.3,12.2,15.3c3.6,0,6.8-0.7,9.5-2.3l-0.9-2
		c-2.8,1.6-5.4,2.2-8.6,2.2c-5.3,0-9.5-1.9-9.9-11.4l0-1.2l20.6,0l0,0V24C194.9,12.4,190.7,8.6,183.7,8.6z M174.2,22.6
		c0.2-10.1,4.6-11.9,9.5-11.9c5.3,0,8.9,2.8,8.9,11.9H174.2z M268.3,8.8c0,0-9.3,27.9-9.5,28.4c-0.7,1.9-1.8,3.8-2.9,5.1
		c-1.1,1.5-2.7,2.8-4.4,3.6l-0.3,0.1l-0.5-0.8c-0.3-0.4-0.5-0.8-0.5-0.9c-0.1-0.1-0.1-0.1,0.5-0.4c1.9-1,3.3-2.3,4.4-4.1
		c0.4-0.6,0.9-1.7,1.1-2.4l0.2-0.6l-4.8-14.1c-2.6-7.8-4.8-14.1-4.8-14.2c0,0,2.3-0.4,2.3-0.4c0,0,1.9,5.9,4.2,13.1
		c2.3,7.2,4.2,13.1,4.2,13.1s1.9-5.9,4.3-13.1s4.2-13.1,4.3-13.1C266.2,8.3,268.3,8.8,268.3,8.8z M233.3,10.6v17.2
		c0,1.2,0.2,2.4,0.7,3.5c0,0,0.5,1.2,1.4,2.2c0.4,0.5,1.3,1.2,2.5,2l-1,2.1c-1.5-1-2.6-2-3.2-2.6c-1.1-1.3-1.8-2.8-1.8-2.8
		c-0.6-1.5-0.9-3.3-0.8-5.1V10.7h-8.4l1.1-2.1h7.3V1h2.3v7.5h7.2l1.1,2.1H233.3z M216,7.2l1.1,2h0c-8.2,0.3-10,5.3-10,13.3v0.2v15.2
		c-0.8-0.1-1.6-0.3-2.3-0.5V8c0.7-0.2,1.5-0.4,2.3-0.5v4.2C208.8,8.9,211.7,7.4,216,7.2z M118.6,8.6c-8.8,0-12.3,4.9-12.3,15.4
		c0,10.5,3.5,15.4,12.3,15.4c8.8,0,12.3-4.9,12.3-15.4C130.9,13.4,127.4,8.5,118.6,8.6z M118.6,37.2c-8.3,0-10-5.3-10-13.3
		s1.7-13.3,10-13.3c8.3,0,10,5.3,10,13.3C128.6,31.9,126.9,37.2,118.6,37.2z M100.7,8.6l1.1,2h0c-8.3,0-10,5.3-10,13.3v0.2v15.2
		c-0.8-0.1-1.6-0.3-2.3-0.5V9.4c0.7-0.2,1.5-0.4,2.3-0.5v4.2C93.5,10.2,96.4,8.8,100.7,8.6z M70.2,8.6c-4.8,0-8,1.5-9.9,4.6V9.2
		c0,0,0,0-0.1,0c-0.8,0.4-1.6,0.9-2.3,1.4v44.2c0.7,0.6,1.5,1,2.3,1.5V34.7c1.9,3.1,5.1,4.6,9.9,4.6c8.8,0,12.3-4.9,12.3-15.4
		C82.5,13.5,79,8.6,70.2,8.6z M70.2,37.2c-8.3,0-9.9-5.3-9.9-13.3c0-8,1.7-13.3,9.9-13.3S80.1,16,80.1,24S78.5,37.2,70.2,37.2z
		 M151.1,8.6c-4.8,0-8,1.5-9.9,4.6V9.2c0,0,0,0-0.1,0c-0.8,0.4-1.6,0.9-2.3,1.4v44.2c0.7,0.6,1.5,1,2.3,1.5V34.7
		c1.9,3.1,5.1,4.6,9.9,4.6c8.8,0,12.3-4.9,12.3-15.4C163.4,13.5,159.9,8.6,151.1,8.6z M151.1,37.2c-8.3,0-9.9-5.3-9.9-13.3
		c0-8,1.7-13.3,9.9-13.3S161,16,161,24S159.4,37.2,151.1,37.2z"/>
</g>
</svg>
